<svg xmlns="http://www.w3.org/2000/svg" viewBox="0 0 32 32" fill="none">
  <rect width="32" height="32" rx="8" fill="#4f46e5"/>
  <path d="M16 6c-1.5 3-2.5 6-2.5 10 0 2.5.5 4.5 1.5 6.5h2c1-2 1.5-4 1.5-6.5 0-4-1-7-2.5-10z" fill="white"/>
  <path d="M11.5 18c-.5-1.5-1-2-2-2.5.5 2 1.5 4 3 5.5l1-1c-.8-0.5-1.5-1.2-2-2z" fill="white" opacity="0.8"/>
  <path d="M20.5 18c.5-1.5 1-2 2-2.5-.5 2-1.5 4-3 5.5l-1-1c.8-.5 1.5-1.2 2-2z" fill="white" opacity="0.8"/>
  <circle cx="16" cy="14" r="1.5" fill="#4f46e5"/>
  <path d="M14 23h4l-1 3h-2z" fill="#f59e0b"/>
</svg>
